<?xml version="1.0" encoding="UTF-8" standalone="no"?>
<!-- Created with Inkscape (http://www.inkscape.org/) -->

<svg
   xmlns:dc="http://purl.org/dc/elements/1.1/"
   xmlns:cc="http://creativecommons.org/ns#"
   xmlns:rdf="http://www.w3.org/1999/02/22-rdf-syntax-ns#"
   xmlns:svg="http://www.w3.org/2000/svg"
   xmlns="http://www.w3.org/2000/svg"
   xmlns:sodipodi="http://sodipodi.sourceforge.net/DTD/sodipodi-0.dtd"
   xmlns:inkscape="http://www.inkscape.org/namespaces/inkscape"
   version="1.1"
   id="svg10"
   xml:space="preserve"
   width="1600"
   height="498.92133"
   viewBox="0 0 1600 498.92133"
   sodipodi:docname="SIMBioSys_Title_Inkscape.svg"
   inkscape:version="0.92.4 (5da689c313, 2019-01-14)"><metadata
     id="metadata16"><rdf:RDF><cc:Work
         rdf:about=""><dc:format>image/svg+xml</dc:format><dc:type
           rdf:resource="http://purl.org/dc/dcmitype/StillImage" /><dc:title></dc:title></cc:Work></rdf:RDF></metadata><defs
     id="defs14" /><sodipodi:namedview
     pagecolor="#ffffff"
     bordercolor="#666666"
     borderopacity="1"
     objecttolerance="10"
     gridtolerance="10"
     guidetolerance="10"
     inkscape:pageopacity="0"
     inkscape:pageshadow="2"
     inkscape:window-width="1920"
     inkscape:window-height="1001"
     id="namedview12"
     showgrid="false"
     inkscape:zoom="0.925"
     inkscape:cx="800"
     inkscape:cy="-96.485283"
     inkscape:window-x="-9"
     inkscape:window-y="-9"
     inkscape:window-maximized="1"
     inkscape:current-layer="g18" /><g
     id="g18"
     inkscape:groupmode="layer"
     inkscape:label="SIMBioSys_Title"
     transform="matrix(1.3333333,0,0,1.3333333,0,-583.90526)"><g
       id="g20"><path
         d="M 0,0 H 1200 V 1200 H 0 Z"
         style="fill:#00f704;fill-opacity:1;fill-rule:nonzero;stroke:none"
         id="path22"
         inkscape:connector-curvature="0" /></g><g
       id="g24"><g
         id="g26"
         transform="scale(1200)"><g
           id="g28"><path
             d="M 0,0 H 1 V 1 H 0 Z"
             style="fill:#00f704;fill-opacity:1;fill-rule:nonzero;stroke:none"
             id="path30"
             inkscape:connector-curvature="0" /></g></g></g><g
       id="g32"
       transform="translate(143.27778,139.56723)"><g
         id="g34"
         transform="matrix(14.85267,0,0,14.85267,-14.85267,-14.85267)"><g
           id="g36"><path
             d="M 33,18 V 9.816 C 33.896863,9.498911 34.590192,8.775257 34.86862,7.865649 35.147049,6.956041 34.977577,5.968286 34.411869,5.203508 33.846162,4.438731 32.951267,3.987573 32,3.987573 c -0.951267,0 -1.846162,0.451158 -2.411869,1.215935 C 29.022423,5.968286 28.852951,6.956041 29.13138,7.865649 29.409808,8.775257 30.103137,9.498911 31,9.816 V 18 Z"
             style="fill:#000000;fill-opacity:1;fill-rule:nonzero;stroke:none"
             id="path38"
             inkscape:connector-curvature="0" /></g><g
           id="g40"><path
             d="m 48,14 c -0.04364,9e-6 -0.08724,0.0029 -0.130514,0.0086 -0.04327,0.0057 -0.08612,0.01424 -0.128278,0.02554 -0.04216,0.0113 -0.08353,0.02536 -0.123846,0.04207 -0.04032,0.01671 -0.0795,0.03604 -0.117297,0.05787 -0.03779,0.02183 -0.07412,0.04611 -0.108741,0.07268 -0.03462,0.02658 -0.06747,0.05539 -0.09832,0.08625 l -4,4 1.414,1.414 3.707,-3.707 h 4.086 v -2 h -4.5 z"
             style="fill:#000000;fill-opacity:1;fill-rule:nonzero;stroke:none"
             id="path42"
             inkscape:connector-curvature="0" /></g><g
           id="g44"><path
             d="m 48.414,48 -3.707,-3.707 -1.414,1.414 4,4 c 0.03086,0.03087 0.0637,0.05968 0.09832,0.08626 0.03462,0.02658 0.07095,0.05085 0.108741,0.07268 0.03779,0.02183 0.07698,0.04116 0.117297,0.05787 0.04032,0.01671 0.08169,0.03076 0.123846,0.04207 0.04216,0.0113 0.08501,0.01984 0.128278,0.02554 0.04327,0.0057 0.08687,0.0086 0.130514,0.0086 h 4.5 v -2 h -4.086 z"
             style="fill:#000000;fill-opacity:1;fill-rule:nonzero;stroke:none"
             id="path46"
             inkscape:connector-curvature="0" /></g><g
           id="g48"><path
             d="m 58.5,15 c 0,1.656854 -1.343146,3 -3,3 -1.656854,0 -3,-1.343146 -3,-3 0,-1.656854 1.343146,-3 3,-3 1.656854,0 3,1.343146 3,3 z"
             style="fill:#000000;fill-opacity:1;fill-rule:nonzero;stroke:none"
             id="path50"
             inkscape:connector-curvature="0" /></g><g
           id="g52"><path
             d="M 33,54.184 V 46 h -2 v 8.184 c -0.896863,0.317089 -1.590192,1.040743 -1.86862,1.950351 -0.278429,0.909608 -0.108957,1.897363 0.456751,2.662141 0.565707,0.764777 1.460602,1.215935 2.411869,1.215935 0.951267,0 1.846162,-0.451158 2.411869,-1.215935 0.565708,-0.764778 0.73518,-1.752533 0.456751,-2.662141 C 34.590192,55.224743 33.896863,54.501089 33,54.184 Z"
             style="fill:#000000;fill-opacity:1;fill-rule:nonzero;stroke:none"
             id="path54"
             inkscape:connector-curvature="0" /></g><g
           id="g56"><path
             d="m 58.5,49 c 0,1.656854 -1.343146,3 -3,3 -1.656854,0 -3,-1.343146 -3,-3 0,-1.656854 1.343146,-3 3,-3 1.656854,0 3,1.343146 3,3 z"
             style="fill:#000000;fill-opacity:1;fill-rule:nonzero;stroke:none"
             id="path58"
             inkscape:connector-curvature="0" /></g><g
           id="g60"><path
             d="m 59.5,29 c -0.204751,3.66e-4 -0.408923,0.02176 -0.609302,0.06385 -0.200379,0.04209 -0.395904,0.104652 -0.583498,0.1867 -0.187593,0.08205 -0.366263,0.183147 -0.533196,0.301708 -0.166933,0.11856 -0.321246,0.253954 -0.460511,0.404049 -0.139264,0.150096 -0.262742,0.3141 -0.368491,0.489429 C 56.839253,30.621069 56.751794,30.806797 56.684,31 H 45 v 2 h 11.684 c 0.246839,0.692951 0.740065,1.270827 1.385641,1.62345 0.645575,0.352624 1.398345,0.455332 2.114789,0.288542 0.716444,-0.16679 1.346451,-0.591412 1.769904,-1.192909 0.423454,-0.601496 0.610736,-1.337796 0.526141,-2.068518 -0.0846,-0.730722 -0.435152,-1.404756 -0.984834,-1.893593 C 60.94596,29.268135 60.235601,28.998687 59.5,29 Z"
             style="fill:#000000;fill-opacity:1;fill-rule:nonzero;stroke:none"
             id="path62"
             inkscape:connector-curvature="0" /></g><g
           id="g64"><path
             d="m 8.769,46.217 c 0.467,-0.368 0.933,-0.731 1.393,-1.088 l 0.224,-0.174 C 6.355,41.688 3,38.151 3,32 3,24.74 7.669,21.122 12.613,17.291 17.719,13.333 23,9.24 23,1 H 21 C 21,8.26 16.331,11.878 11.387,15.709 6.281,19.667 1,23.76 1,32 1,38.825 4.624,42.8 8.769,46.217 Z"
             style="fill:#000000;fill-opacity:1;fill-rule:nonzero;stroke:none"
             id="path66"
             inkscape:connector-curvature="0" /></g><g
           id="g68"><path
             d="m 15.231,48.783 c -0.467,0.368 -0.933,0.731 -1.393,1.088 l -0.224,0.174 C 17.645,53.312 21,56.849 21,63 h 2 C 23,56.175 19.376,52.2 15.231,48.783 Z"
             style="fill:#000000;fill-opacity:1;fill-rule:nonzero;stroke:none"
             id="path70"
             inkscape:connector-curvature="0" /></g><g
           id="g72"><path
             d="m 8.769,15.217 c 0.467,-0.368 0.933,-0.731 1.393,-1.088 l 0.224,-0.174 C 10.077674,13.718944 9.77481,13.47584 9.477645,13.225879 9.180481,12.975918 8.889096,12.719166 8.60372,12.455826 8.318344,12.192487 8.039053,11.922629 7.766067,11.646466 7.493082,11.370304 7.226473,11.087909 6.966453,10.799505 6.706433,10.511102 6.453069,10.216766 6.206563,9.91673 5.960057,9.616693 5.720473,9.311036 5.488,9 h 10.483 c 0.09012,-0.103666 0.17869,-0.208661 0.265693,-0.314952 0.087,-0.106291 0.172426,-0.213866 0.256241,-0.322689 0.08381,-0.108824 0.166011,-0.218883 0.246563,-0.330143 0.08055,-0.11126 0.159451,-0.223708 0.236669,-0.337306 0.07722,-0.113599 0.15275,-0.228335 0.226568,-0.344173 C 17.276552,7.2349 17.348648,7.117975 17.419,7 H 4.305 C 4.157793,6.688936 4.022453,6.372394 3.899272,6.051057 3.776092,5.729721 3.66516,5.403822 3.566715,5.074066 3.468271,4.744309 3.382387,4.410933 3.309247,4.074658 3.236107,3.738382 3.175765,3.39945 3.128351,3.058595 3.080936,2.717739 3.046485,2.375206 3.02507,2.031736 3.003655,1.688265 2.995292,1.344105 3,1 H 1 c 0,6.825 3.624,10.8 7.769,14.217 z"
             style="fill:#000000;fill-opacity:1;fill-rule:nonzero;stroke:none"
             id="path74"
             inkscape:connector-curvature="0" /></g><g
           id="g76"><path
             d="m 31.5,32 c 0,1.656854 -1.343146,3 -3,3 -1.656854,0 -3,-1.343146 -3,-3 0,-1.656854 1.343146,-3 3,-3 1.656854,0 3,1.343146 3,3 z"
             style="fill:#000000;fill-opacity:1;fill-rule:nonzero;stroke:none"
             id="path78"
             inkscape:connector-curvature="0" /></g><g
           id="g80"><path
             d="M 41,21 H 18.668 C 18.490409,20.807684 18.310489,20.617531 18.128282,20.429582 17.946074,20.241634 17.761591,20.055905 17.574875,19.872435 17.388158,19.688966 17.199221,19.50777 17.008105,19.328887 16.816989,19.150005 16.623709,18.973449 16.428307,18.799259 16.232905,18.625068 16.035395,18.453257 15.835822,18.283862 15.636249,18.114466 15.434627,17.9475 15.231,17.783 c -0.467,0.368 -0.933,0.731 -1.393,1.088 l -0.224,0.174 c 0.784,0.636 1.541,1.282 2.254,1.955 H 16 c -0.08739,0 -0.174406,0.01146 -0.258819,0.03407 -0.08441,0.02262 -0.165498,0.0562 -0.241181,0.0999 -0.07568,0.04369 -0.145312,0.09712 -0.207107,0.158918 -0.0618,0.0618 -0.115223,0.131424 -0.158918,0.207107 -0.0437,0.07568 -0.07728,0.156767 -0.0999,0.241181 C 15.011456,21.825594 15,21.912609 15,22 v 2 H 8.029 C 7.938884,24.103666 7.85031,24.208661 7.763307,24.314952 7.676304,24.421243 7.590881,24.528818 7.507066,24.637641 7.423252,24.746465 7.341055,24.856524 7.260503,24.967784 7.179951,25.079044 7.101052,25.191492 7.023834,25.30509 6.946615,25.418689 6.871084,25.533425 6.797266,25.649263 6.723448,25.7651 6.651352,25.882025 6.581,26 H 15 v 5 H 5.041 C 5.017,31.326 5,31.656 5,32 c 0,0.344 0.014,0.675 0.036,1 H 15 v 5 H 6.564 c 0.070621,0.118045 0.142998,0.23503 0.217108,0.350916 0.07411,0.115886 0.149944,0.23066 0.227477,0.344285 0.077533,0.113624 0.156757,0.226086 0.237644,0.337348 0.080887,0.111261 0.163429,0.22131 0.247599,0.33011 0.084169,0.1088 0.169956,0.216338 0.257333,0.322579 C 7.838537,39.79148 7.927494,39.896412 8.018,40 H 15 v 2 c 0,0.08739 0.01146,0.174406 0.03407,0.258819 0.02262,0.08441 0.05621,0.165498 0.0999,0.241181 0.0437,0.07568 0.09712,0.145312 0.158918,0.207107 0.0618,0.06179 0.131424,0.115223 0.207107,0.158918 0.07568,0.0437 0.156767,0.07728 0.241181,0.0999 C 15.825594,42.988544 15.912609,43 16,43 h -0.129 c -1.374,1.3 -2.914,2.493 -4.484,3.709 C 6.281,50.667 1,54.76 1,63 H 3 C 2.995448,62.655856 3.003969,62.311664 3.025544,61.968167 3.04712,61.62467 3.081735,61.282116 3.129314,60.941247 3.176893,60.600378 3.237402,60.261439 3.31071,59.925163 3.384018,59.588887 3.470073,59.255517 3.568687,58.925773 3.667302,58.596029 3.778405,58.270151 3.901757,57.948841 4.02511,57.627531 4.160621,57.311023 4.308,57 h 13.128 c -0.07062,-0.118045 -0.142998,-0.23503 -0.217108,-0.350916 -0.07411,-0.115886 -0.149944,-0.23066 -0.227477,-0.344285 -0.07753,-0.113624 -0.156757,-0.226086 -0.237644,-0.337348 -0.08089,-0.111261 -0.163429,-0.22131 -0.247599,-0.33011 -0.08417,-0.1088 -0.169956,-0.216338 -0.257333,-0.322579 C 16.161463,55.20852 16.072506,55.103588 15.982,55 H 5.487 c 1.82,-2.589 4.429,-4.62 7.126,-6.709 0.361129,-0.263862 0.718402,-0.532961 1.071707,-0.807212 0.353305,-0.27425 0.702603,-0.553623 1.047784,-0.83803 0.345182,-0.284407 0.686209,-0.573817 1.022976,-0.86814 0.336766,-0.294323 0.669235,-0.593527 0.997301,-0.897517 0.328067,-0.303989 0.651696,-0.612733 0.970785,-0.926133 C 18.042642,43.640568 18.357158,43.322545 18.667,43 H 41 c 0.08739,0 0.174406,-0.01146 0.258819,-0.03407 0.08441,-0.02262 0.165498,-0.05621 0.241181,-0.0999 0.07568,-0.04369 0.145312,-0.09712 0.207107,-0.158918 0.06179,-0.0618 0.115223,-0.131424 0.158918,-0.207107 0.0437,-0.07568 0.07728,-0.156767 0.0999,-0.241181 C 41.988544,42.174406 42,42.087391 42,42 V 22 c 0,-0.08739 -0.01146,-0.174406 -0.03407,-0.258819 -0.02262,-0.08441 -0.05621,-0.165498 -0.0999,-0.241181 -0.04369,-0.07568 -0.09712,-0.145312 -0.158918,-0.207107 -0.0618,-0.0618 -0.131424,-0.115223 -0.207107,-0.158918 -0.07568,-0.0437 -0.156767,-0.07728 -0.241181,-0.0999 C 41.174406,21.011456 41.087391,21 41,21 Z m -5.7,11 c -3.1e-5,0.049 -6.41e-4,0.098 -0.0018,0.146984 -0.0012,0.04899 -0.003,0.09796 -0.0053,0.1469 -0.0023,0.04894 -0.0053,0.09786 -0.0088,0.146734 -0.0035,0.04887 -0.0076,0.09771 -0.01224,0.146485 -0.0047,0.04878 -0.0099,0.0975 -0.0157,0.146154 -0.0058,0.04865 -0.01219,0.09724 -0.01915,0.145743 -0.0059,0.04986 -0.0067,0.100188 -0.0024,0.15021 0.0043,0.05002 0.01363,0.09948 0.02791,0.147615 0.01427,0.04813 0.03339,0.0947 0.05707,0.138968 0.02367,0.04427 0.05178,0.08603 0.08389,0.124625 0.03211,0.0386 0.06805,0.07383 0.107274,0.105173 0.03922,0.03134 0.08153,0.05861 0.126259,0.08141 l 0.465,0.257 c 0.06003,0.03161 0.115498,0.07122 0.164879,0.11774 0.04938,0.04652 0.09222,0.09953 0.127348,0.157576 0.03513,0.05804 0.06222,0.120585 0.08053,0.185913 0.01831,0.06533 0.02767,0.132838 0.02782,0.200683 1.56e-4,0.06784 -0.0089,0.135397 -0.0269,0.200808 -0.01801,0.06541 -0.04481,0.128076 -0.07967,0.18628 L 35.1,37.067 c -0.03711,0.05895 -0.08153,0.112953 -0.13221,0.160735 -0.05068,0.04778 -0.107204,0.08895 -0.168228,0.122535 -0.06102,0.03358 -0.126054,0.0593 -0.19354,0.07653 -0.06749,0.01724 -0.136882,0.02586 -0.206534,0.02567 -0.06965,-1.98e-4 -0.138999,-0.0092 -0.206386,-0.02684 C 34.125716,37.408011 34.060832,37.381925 34,37.348 l -0.471,-0.26 c -0.04763,-0.02524 -0.09755,-0.04589 -0.149087,-0.0617 -0.05154,-0.0158 -0.104454,-0.02668 -0.158044,-0.03248 -0.05359,-0.0058 -0.107611,-0.0065 -0.161335,-0.0021 -0.05372,0.0044 -0.106908,0.0139 -0.158838,0.02835 -0.05193,0.01445 -0.102371,0.0338 -0.150646,0.05779 -0.04827,0.02398 -0.09416,0.05249 -0.13705,0.08515 -0.0771,0.05657 -0.155375,0.111521 -0.234766,0.164827 -0.07939,0.05331 -0.159886,0.104952 -0.24143,0.154904 -0.08154,0.04995 -0.164119,0.0982 -0.247673,0.144711 -0.08355,0.04651 -0.168067,0.09128 -0.253486,0.134268 -0.08542,0.04299 -0.171725,0.0842 -0.258861,0.123591 -0.08713,0.03939 -0.175083,0.07697 -0.263784,0.112699 -0.04954,0.01759 -0.09719,0.04009 -0.14224,0.06716 -0.04506,0.02707 -0.08729,0.05859 -0.126067,0.09407 -0.03878,0.03548 -0.07391,0.07476 -0.10487,0.11724 -0.03096,0.04248 -0.05759,0.08795 -0.07949,0.135734 -0.0219,0.04778 -0.03897,0.09764 -0.05095,0.148818 -0.01198,0.05118 -0.0188,0.103432 -0.02038,0.155973 v 0.515 c -0.0016,0.06847 -0.01206,0.136437 -0.03123,0.202183 -0.01917,0.06575 -0.04686,0.128705 -0.08235,0.187276 -0.03549,0.05857 -0.07849,0.112252 -0.127889,0.15968 -0.0494,0.04743 -0.104795,0.08819 -0.164765,0.121267 -0.05997,0.03307 -0.124005,0.05816 -0.190479,0.07464 C 29.926815,39.993521 29.858474,40.001238 29.79,40 h -2.579 c -0.06847,0.0012 -0.136815,-0.0065 -0.203289,-0.02296 -0.06647,-0.01647 -0.130509,-0.04157 -0.190479,-0.07464 -0.05997,-0.03307 -0.115361,-0.07384 -0.164765,-0.121267 -0.0494,-0.04743 -0.0924,-0.101109 -0.127889,-0.15968 -0.03549,-0.05857 -0.06318,-0.12153 -0.08235,-0.187276 -0.01917,-0.06575 -0.02967,-0.133716 -0.03123,-0.202183 v -0.515 c -0.0018,-0.05255 -0.0088,-0.104779 -0.021,-0.155923 -0.01218,-0.05114 -0.02945,-0.10094 -0.05156,-0.148644 -0.0221,-0.0477 -0.04892,-0.09308 -0.08006,-0.135439 -0.03114,-0.04236 -0.06644,-0.0815 -0.105368,-0.116836 -0.03893,-0.03533 -0.0813,-0.06668 -0.126477,-0.09358 -0.04518,-0.02689 -0.09293,-0.0492 -0.142547,-0.06658 -0.0887,-0.03573 -0.176649,-0.0733 -0.263784,-0.112699 -0.08714,-0.03939 -0.173442,-0.0806 -0.258861,-0.123591 -0.08542,-0.04299 -0.169932,-0.08776 -0.253486,-0.134268 -0.08355,-0.04651 -0.16613,-0.09476 -0.247673,-0.144711 -0.08154,-0.04995 -0.162038,-0.101598 -0.24143,-0.154904 -0.07939,-0.05331 -0.157664,-0.10826 -0.234766,-0.164827 -0.04289,-0.03265 -0.08878,-0.06117 -0.13705,-0.08515 -0.04827,-0.02398 -0.09872,-0.04333 -0.150646,-0.05778 -0.05193,-0.01445 -0.105115,-0.02395 -0.158838,-0.02835 -0.05372,-0.0044 -0.107744,-0.0037 -0.161335,0.0021 -0.05359,0.0058 -0.106509,0.01668 -0.158044,0.03248 -0.05154,0.0158 -0.101455,0.03646 -0.149087,0.0617 l -0.471,0.26 c -0.06083,0.03392 -0.125716,0.06001 -0.193102,0.07763 -0.06739,0.01762 -0.136733,0.02664 -0.206386,0.02684 -0.06965,1.97e-4 -0.139049,-0.0084 -0.206534,-0.02567 -0.06749,-0.01724 -0.132516,-0.04296 -0.19354,-0.07653 -0.06102,-0.03358 -0.11755,-0.07475 -0.168228,-0.122535 -0.05068,-0.04778 -0.0951,-0.10179 -0.13221,-0.160735 L 20.61,34.935 c -0.03486,-0.0582 -0.06166,-0.120869 -0.07967,-0.18628 -0.01801,-0.06541 -0.02706,-0.132963 -0.0269,-0.200808 1.55e-4,-0.06784 0.0095,-0.135355 0.02782,-0.200683 0.01831,-0.06533 0.0454,-0.127869 0.08052,-0.185913 0.03513,-0.05804 0.07797,-0.111052 0.127348,-0.157576 0.04938,-0.04652 0.104847,-0.08613 0.164879,-0.11774 l 0.465,-0.257 c 0.04473,-0.02279 0.08704,-0.05007 0.126259,-0.08141 0.03922,-0.03134 0.07517,-0.06658 0.107274,-0.105173 0.03211,-0.0386 0.06021,-0.08035 0.08389,-0.124625 0.02367,-0.04427 0.0428,-0.09083 0.05707,-0.138968 0.01427,-0.04813 0.02362,-0.09759 0.02791,-0.147615 0.0043,-0.05002 0.0035,-0.10035 -0.0024,-0.15021 -0.01398,-0.097 -0.02564,-0.194327 -0.03497,-0.291887 -0.0093,-0.09756 -0.01634,-0.195328 -0.02101,-0.293222 -0.0047,-0.09789 -0.007,-0.195886 -0.007,-0.293891 0,-0.09801 0.0023,-0.195997 0.007,-0.293891 0.0047,-0.09789 0.01168,-0.195662 0.02101,-0.293222 0.0093,-0.09756 0.02099,-0.194883 0.03497,-0.291887 0.0059,-0.04986 0.0067,-0.100188 0.0024,-0.15021 -0.0043,-0.05002 -0.01363,-0.09948 -0.02791,-0.147615 -0.01427,-0.04813 -0.03339,-0.0947 -0.05707,-0.138968 -0.02368,-0.04427 -0.05178,-0.08603 -0.08389,-0.124625 -0.03211,-0.0386 -0.06805,-0.07383 -0.107274,-0.105173 -0.03922,-0.03134 -0.08153,-0.05861 -0.126259,-0.08141 l -0.465,-0.257 c -0.06003,-0.03161 -0.115498,-0.07122 -0.164879,-0.11774 -0.04938,-0.04652 -0.09222,-0.09953 -0.127348,-0.157576 -0.03513,-0.05804 -0.06222,-0.120585 -0.08052,-0.185913 -0.01831,-0.06533 -0.02767,-0.132838 -0.02782,-0.200683 -1.56e-4,-0.06785 0.0089,-0.135397 0.0269,-0.200808 0.01801,-0.06541 0.04481,-0.128076 0.07967,-0.18628 l 1.29,-2.136 c 0.03711,-0.05895 0.08153,-0.112953 0.13221,-0.160735 0.05068,-0.04778 0.107204,-0.08896 0.168228,-0.122535 0.06102,-0.03358 0.126054,-0.0593 0.19354,-0.07654 0.06748,-0.01724 0.136882,-0.02586 0.206534,-0.02567 0.06965,1.98e-4 0.138999,0.0092 0.206386,0.02684 0.06739,0.01762 0.13227,0.04371 0.193102,0.07763 l 0.471,0.26 c 0.04763,0.02524 0.09755,0.04589 0.149087,0.0617 0.05153,0.0158 0.104454,0.02668 0.158044,0.03248 0.05359,0.0058 0.107611,0.0065 0.161335,0.0021 0.05372,-0.0044 0.106908,-0.0139 0.158838,-0.02835 0.05193,-0.01445 0.102371,-0.0338 0.150646,-0.05778 0.04827,-0.02398 0.09416,-0.05249 0.13705,-0.08515 0.0771,-0.05657 0.155375,-0.111521 0.234766,-0.164827 0.07939,-0.05331 0.159886,-0.104952 0.24143,-0.154904 0.08154,-0.04995 0.164119,-0.0982 0.247673,-0.144711 0.08355,-0.04651 0.168067,-0.09128 0.253486,-0.134268 0.08542,-0.04299 0.171725,-0.0842 0.258861,-0.123591 0.08713,-0.03939 0.175083,-0.07697 0.263784,-0.112699 0.04954,-0.01759 0.09719,-0.04009 0.14224,-0.06716 0.04506,-0.02707 0.08729,-0.05859 0.126067,-0.09407 0.03878,-0.03549 0.07391,-0.07476 0.10487,-0.11724 0.03096,-0.04248 0.05759,-0.08795 0.07949,-0.135734 0.0219,-0.04778 0.03897,-0.09764 0.05095,-0.148818 0.01198,-0.05118 0.0188,-0.103432 0.02038,-0.155973 v -0.515 c 0.0016,-0.06847 0.01206,-0.136437 0.03123,-0.202183 0.01917,-0.06575 0.04686,-0.128705 0.08235,-0.187276 0.03549,-0.05857 0.07849,-0.112252 0.127889,-0.15968 0.0494,-0.04743 0.104795,-0.08819 0.164765,-0.121267 0.05997,-0.03307 0.124005,-0.05816 0.190479,-0.07464 C 27.073185,24.006479 27.141526,23.998762 27.21,24 h 2.578 c 0.06847,-0.0012 0.136815,0.0065 0.203289,0.02295 0.06647,0.01647 0.130509,0.04157 0.190479,0.07464 0.05997,0.03307 0.115361,0.07384 0.164765,0.121267 0.0494,0.04743 0.0924,0.101109 0.127889,0.15968 0.03549,0.05857 0.06318,0.12153 0.08235,0.187276 0.01917,0.06575 0.02967,0.133716 0.03123,0.202183 v 0.515 c 0.0016,0.05254 0.0084,0.104792 0.02038,0.155973 0.01198,0.05118 0.02905,0.101036 0.05095,0.148818 0.0219,0.04778 0.04854,0.09325 0.07949,0.135734 0.03096,0.04248 0.06609,0.08176 0.10487,0.11724 0.03878,0.03548 0.08101,0.067 0.126067,0.09407 0.04505,0.02707 0.0927,0.04957 0.14224,0.06716 0.0887,0.03573 0.176649,0.07331 0.263784,0.112699 0.08714,0.03939 0.173442,0.0806 0.258861,0.123591 0.08542,0.04299 0.169932,0.08776 0.253486,0.134268 0.08355,0.04651 0.16613,0.09476 0.247673,0.144711 0.08154,0.04995 0.162038,0.101598 0.24143,0.154904 0.07939,0.05331 0.157664,0.10826 0.234766,0.164827 0.04289,0.03266 0.08878,0.06117 0.13705,0.08515 0.04828,0.02398 0.09872,0.04333 0.150646,0.05778 0.05193,0.01445 0.105115,0.02395 0.158838,0.02835 0.05372,0.0044 0.107744,0.0037 0.161335,-0.0021 0.05359,-0.0058 0.106509,-0.01668 0.158044,-0.03248 0.05154,-0.0158 0.101455,-0.03646 0.149087,-0.0617 l 0.471,-0.26 c 0.06083,-0.03392 0.125716,-0.06001 0.193102,-0.07763 0.06739,-0.01762 0.136733,-0.02664 0.206386,-0.02684 0.06965,-1.97e-4 0.139049,0.0084 0.206534,0.02567 0.06749,0.01724 0.132516,0.04296 0.19354,0.07654 0.06102,0.03358 0.11755,0.07475 0.168228,0.122535 0.05068,0.04778 0.0951,0.10179 0.13221,0.160735 l 1.288,2.134 c 0.03486,0.0582 0.06166,0.120869 0.07967,0.18628 0.01801,0.06541 0.02706,0.132963 0.0269,0.200808 -1.55e-4,0.06785 -0.0095,0.135355 -0.02782,0.200683 -0.01831,0.06533 -0.0454,0.127869 -0.08052,0.185913 -0.03513,0.05804 -0.07797,0.111052 -0.127348,0.157576 -0.04938,0.04652 -0.104847,0.08613 -0.164879,0.11774 l -0.465,0.257 c -0.04473,0.02279 -0.08704,0.05007 -0.126259,0.08141 -0.03922,0.03134 -0.07517,0.06658 -0.107274,0.105173 -0.03211,0.0386 -0.06021,0.08035 -0.08389,0.124625 -0.02367,0.04427 -0.0428,0.09083 -0.05707,0.138968 -0.01427,0.04813 -0.02362,0.09759 -0.02791,0.147615 -0.0043,0.05002 -0.0035,0.10035 0.0024,0.15021 0.0075,0.04846 0.01447,0.09701 0.02084,0.145642 0.0064,0.04863 0.01216,0.09733 0.01738,0.146094 0.0052,0.04877 0.0099,0.09759 0.01391,0.146466 0.0041,0.04888 0.0075,0.0978 0.01044,0.146754 0.0029,0.04896 0.0052,0.09795 0.007,0.14696 0.0017,0.04901 0.0029,0.09804 0.0035,0.147084 z"
             style="fill:#000000;fill-opacity:1;fill-rule:nonzero;stroke:none"
             id="path82"
             inkscape:connector-curvature="0" /></g></g></g><g
       id="g84"
       transform="translate(118.69259,646.10473)"><g
         id="g86"
         transform="translate(-87.532214,-22.798594)"><g
           id="g88"><path
             d="M 1136.1561,0 H 1.523144 L 66.750043,95.196499 1.523144,190.393 H 1136.1561 l -65.2269,-95.196501 z"
             style="fill:#000000;fill-opacity:1;fill-rule:nonzero;stroke:none"
             id="path90"
             inkscape:connector-curvature="0" /></g></g><g
         id="g92"
         transform="translate(0,-1.005526)"><g
           id="g94"
           transform="translate(0,0.402211)"><path
             d="m 42.634322,36.400058 c 0.201105,-0.402211 0.40221,-1.005527 1.005526,-1.809948 l 1.407737,-1.407737 c 1.608842,-1.809948 3.41879,-3.016579 5.630948,-3.619895 l 2.011053,-0.603316 c 5.832054,-0.603316 12.267423,-0.201105 17.697266,2.413263 l 1.206632,0.804422 1.206631,1.005526 c 0.603316,0.804421 1.206632,1.407737 1.809948,2.413263 1.407737,1.809948 2.212158,3.41879 2.815474,5.228738 l 0.402211,1.809948 c 0.201105,1.407737 0.40221,2.815474 1.005526,4.223211 0.402211,1.407737 1.005526,2.413263 2.011053,3.41879 5.429843,1.809947 11.664107,0.603316 17.295055,1.206631 0.804421,0 1.407737,0 1.809948,0.201106 4.02211,0 7.642,-2.614369 7.84311,-6.83758 0,-1.005527 0,-1.608842 -0.20111,-2.011053 l -0.80442,-6.234264 -0.40221,-1.608842 c -0.60332,-3.01658 -1.20663,-5.630949 -2.81547,-8.245317 -0.60332,-1.407737 -1.40774,-2.815474 -2.01106,-3.821001 -1.00553,-2.413263 -2.614367,-4.826527 -4.62542,-7.23979 L 95.525013,14.278476 C 93.312855,12.066317 90.899592,10.055265 88.486328,8.446422 L 86.877486,7.23979 C 81.246538,3.821001 74.811168,2.815474 68.576904,1.407737 H 65.560325 C 56.510587,2.011053 47.259743,0.804421 38.612216,4.022106 L 35.997847,5.027632 C 31.372425,7.23979 27.149214,9.250843 23.93153,13.071844 l -1.608843,1.809948 c -1.407737,1.809947 -2.815474,3.619895 -3.821,5.832053 -1.206632,2.011053 -2.212158,4.022106 -2.815474,5.832053 l -1.005527,3.217685 c -1.407737,3.217685 -2.212158,6.234264 -2.413263,10.055265 0,0.603315 -0.201106,1.206631 -0.201106,2.011053 0.603316,6.234264 0,12.669633 3.01658,18.501686 0.201105,0.402211 0.40221,1.005527 1.005526,1.809948 0.804421,1.407737 1.608843,2.413263 2.614369,3.41879 l 1.407737,1.407737 c 3.016579,3.41879 6.435369,6.435369 10.658581,9.049738 l 1.206631,0.603316 1.407737,0.603316 c 5.832054,3.821 12.468528,5.630948 18.702792,8.245317 l 2.011053,0.603316 c 6.234264,1.608842 12.066318,4.223211 17.496161,7.440895 0.603315,0.201106 1.005526,0.402211 1.608842,1.005527 1.005526,0.603316 1.809948,1.608842 2.614369,2.614369 0.201105,0.603315 0.603316,1.005526 0.804421,1.206631 l 0.603316,1.809943 0.40221,1.60885 v 2.01105 c -0.201105,4.82653 -1.809947,9.25084 -5.630948,12.46853 l -1.407737,1.00553 c -1.005526,0.60331 -2.011053,1.20663 -3.016579,1.40773 l -2.011053,0.60332 c -5.832054,0.60331 -12.267423,0.2011 -17.697266,-2.41327 l -1.206632,-0.80442 -1.206631,-1.00552 c -0.603316,-0.80442 -1.206632,-1.40774 -1.809948,-2.41327 -1.809947,-2.21215 -2.614369,-4.62542 -3.217685,-7.03868 l -0.40221,-2.01105 c 0,-0.60332 -0.201105,-0.80443 -0.201105,-1.40774 0,-1.40774 -0.201106,-2.815476 -0.804422,-3.821003 L 38.210005,96.93275 37.003374,95.726118 c -0.603316,-0.201105 -1.206632,-0.603315 -2.011053,-0.804421 -2.212159,-0.603316 -4.625422,-0.804421 -7.239791,-0.804421 -0.804421,0 -1.407737,0 -1.809947,-0.201105 -3.217685,0.603316 -7.038686,0 -10.457476,0.603316 -0.603315,0 -1.206631,0.201105 -2.011053,0.603316 -4.022105,1.407737 -3.619895,6.033157 -2.815474,9.451947 v 1.40774 c 0,0.40221 0,0.60331 0.201106,0.80442 0.804421,5.02763 1.407737,9.85416 3.821,14.47958 l 0.603316,1.60884 0.804421,1.60885 c 0.603316,0.60331 0.402211,1.00552 1.005527,1.60884 1.407737,2.41326 2.815474,4.62542 4.223211,6.43537 l 1.407737,1.40773 c 2.212158,2.21216 4.625422,4.22321 7.038685,5.83206 l 1.608842,1.20663 c 5.630949,3.41879 12.066318,4.42431 18.300582,5.83205 h 3.016579 c 9.049738,-0.60331 18.300582,0.60332 26.948109,-2.61437 l 2.614369,-1.00552 c 4.625422,-2.21216 8.848633,-4.22321 12.066317,-8.04421 l 1.608843,-1.80995 c 1.407737,-1.80995 2.815474,-3.6199 3.821,-5.83206 l 0.804416,-1.40773 0.60332,-1.40774 c 2.61437,-5.42984 4.22321,-11.2619 5.22874,-17.09395 0,-0.80442 0.2011,-1.40774 0.2011,-2.21216 0,-2.21216 -0.2011,-4.42431 -0.80442,-6.435367 0,-0.804421 0,-1.407737 -0.2011,-2.011053 C 105.17807,90.296276 102.7648,84.665327 98.541593,79.8388 L 97.536066,78.632169 94.318381,75.012274 92.508434,73.403431 C 88.687433,70.386852 84.464222,68.979115 80.241011,67.370272 79.8388,67.169167 79.235485,66.766957 78.431063,66.565851 71.995694,63.951483 65.158114,62.34264 58.92385,59.326061 58.119429,59.124956 57.516113,58.92385 57.315008,58.92385 52.488481,57.315008 47.863059,55.303955 44.042059,51.885165 l -1.407737,-1.608842 c -3.01658,-3.217685 -3.01658,-8.647528 -0.804421,-12.468528 0.201105,-0.603316 0.40221,-1.005527 0.804421,-1.407737 z M 158.26986,125.08749 V 81.849853 c 0,-5.832053 0.80442,-11.865212 0.20111,-17.697265 0,-0.603316 0.2011,-1.206632 0.2011,-2.011053 0,-2.614369 0.20111,-5.027632 0.40221,-8.044212 V 36.400058 c 0,-1.005527 -0.2011,-7.440896 -0.2011,-14.479581 v -1.608843 c 0.2011,-1.407737 0.2011,-2.614368 0.2011,-4.022105 V 14.07737 c 0,-0.804421 0,-1.407737 -0.2011,-1.608842 0.60332,-2.413263 0.2011,-5.228738 -0.80442,-7.038685 -0.20111,-0.603316 -0.40221,-1.005527 -1.00553,-1.206632 -0.2011,-0.201105 -0.60331,-0.603316 -1.20663,-0.804421 -6.23426,-1.005527 -11.66411,-0.603316 -17.89837,-0.402211 -0.60332,0 -1.20663,0.201106 -1.80995,0.201106 -2.21216,0.603316 -4.22321,1.407737 -5.22874,4.022105 0,0.603316 -0.2011,1.206632 -0.2011,2.011053 -0.20111,1.206632 0,2.614369 0.40221,4.223211 v 37.807795 c -0.20111,0.201105 -0.20111,0.402211 -0.20111,0.804421 v 2.011053 c 0,0.603316 -0.2011,1.206632 -0.2011,1.809948 -0.20111,5.832053 -0.60332,11.664107 -0.40221,17.49616 v 9.250844 c 0,5.832053 0.2011,31.372425 0.2011,48.265265 v 1.40774 c 0,4.02211 -1.60884,9.45195 0.60332,11.2619 0.60332,0.60331 0.80442,0.40221 1.40774,1.00552 2.21215,0.80442 4.82652,1.00553 7.642,0.80442 h 2.01105 c 5.63095,-1.20663 12.66963,2.81548 15.284,-2.01105 1.60884,-3.41879 -0.2011,-8.04421 0.40221,-12.66963 v -1.80995 c 0,-1.40774 0.20111,-2.41326 0.40221,-3.821 z m 147.81239,5.83205 c 0,-16.89284 0.20111,-42.433212 0.20111,-48.265265 V 71.593484 L 305.68004,54.097323 V 52.08627 c -0.2011,-0.201105 -0.2011,-0.40221 -0.2011,-0.603316 v -38.0089 c 0.40221,-1.608842 0.60331,-3.016579 0.40221,-4.223211 0,-0.804421 -0.20111,-1.407737 -0.20111,-2.011053 -1.00552,-2.614368 -3.01658,-3.418789 -5.22874,-4.022105 -0.60331,0 -1.20663,-0.201106 -1.80994,-0.201106 -1.80995,0 -3.6199,-0.201105 -5.22874,-0.201105 h -1.80995 c -3.41879,-0.201105 -6.83758,-0.402211 -9.85416,1.005527 -0.60331,0.201105 -1.00552,0.603315 -1.20663,0.804421 l -0.80442,1.005526 c -2.61437,4.826527 -5.63095,9.250844 -8.04421,14.077371 -0.20111,0.603315 -0.60332,1.206631 -1.00553,1.608842 -1.60884,3.016579 -3.01658,5.832053 -5.22874,8.245317 -0.2011,0.603316 -0.40221,1.005526 -1.00552,1.608842 -2.21216,3.217685 -4.02211,6.435369 -5.42985,10.25637 -0.60331,0.603316 -0.40221,1.005526 -1.00552,1.608842 l -1.20663,2.212158 c -0.60332,1.407737 -1.60885,2.413264 -2.21216,3.821001 -0.20111,0.402211 -0.60332,0.804421 -0.80442,1.407737 l -0.40221,0.603316 c -3.01658,5.027632 -5.02764,10.25637 -8.04422,15.284002 l -0.80442,1.608842 -0.60331,1.809948 c 0,-0.603316 -0.20111,-1.206632 -0.20111,-1.809948 -0.2011,-0.603316 -0.40221,-1.005526 -0.40221,-1.407737 -3.21768,-4.022106 -5.02763,-9.049738 -7.23979,-13.675159 l -0.80442,-1.608843 c -0.60332,-1.005526 -1.20663,-2.212158 -2.01105,-3.217684 -1.40774,-1.809948 -2.01106,-3.41879 -2.81548,-5.630949 l -0.60331,-1.608842 -4.62542,-9.854159 c -0.60332,-0.603316 -0.60332,-0.804421 -0.80443,-1.407737 l -1.80994,-2.815474 -0.60332,-1.005527 -1.20663,-2.212158 -0.80442,-1.608842 c -2.41327,-4.022106 -5.22874,-7.843107 -7.4409,-12.066318 L 211.56277,8.245317 210.75835,6.636475 210.15503,5.630948 209.35061,4.625422 C 209.1495,4.424316 208.74729,4.022106 208.14398,3.821001 205.1274,2.413263 201.70861,2.614369 198.28982,2.815474 h -1.80995 c -1.60884,0 -3.41879,0.201105 -5.22874,0.201105 -0.60331,0 -1.20663,0.201106 -1.80995,0.201106 l -2.21215,0.603316 c -0.80443,0.603315 -1.40774,1.005526 -1.60885,1.407737 -2.41326,2.614368 -1.20663,6.636474 -1.20663,10.055264 v 36.198952 c 0,0.201106 -0.2011,0.402211 -0.2011,0.603316 v 2.011053 l -0.60332,17.496161 v 11.060791 c 0,5.832053 0.20111,31.372425 0.20111,48.265265 v 1.40774 c 0,4.02211 -1.60885,9.45195 0.60331,11.2619 l 1.40774,1.00552 c 2.21216,0.80442 4.82653,1.00553 7.642,0.80442 h 2.01105 c 3.21769,-0.80442 7.03869,0.60332 10.45748,0.60332 0.60331,0 0.80442,-0.2011 1.40773,-0.2011 5.63095,-2.21216 2.21216,-9.85416 3.821,-14.68069 v -1.20663 c 0,-1.60884 0.20111,-3.21769 0.40222,-4.82653 V 90.899592 c 0.2011,-4.625422 0.2011,-9.250844 0,-13.876266 0,-0.603315 0,-1.005526 0.2011,-1.206631 v -2.614369 c 0.20111,-3.821001 -0.2011,-7.239791 -0.40221,-11.060791 2.21216,3.821 3.821,7.843106 6.23426,11.664107 l 0.80443,1.206632 c 3.01657,4.022105 5.22873,8.446422 7.44089,13.071843 l 1.00553,1.407737 c 2.21216,3.217685 4.42431,6.234264 5.83205,10.055265 0.20111,0.603311 0.40221,1.206631 0.80442,1.407741 0.20111,0.40221 0.60332,0.80442 1.20663,1.40773 1.40774,2.21216 2.61437,4.82653 4.02211,7.03869 1.80995,3.01658 5.83205,3.21768 9.04974,2.41326 0.60331,-0.2011 1.00552,0 1.60884,-0.60331 l 1.60884,-0.80442 c 1.00553,-0.80443 1.80995,-1.80995 2.41327,-3.21769 0.2011,-0.60332 0.2011,-0.80442 0.80442,-1.40774 1.60884,-3.01658 3.41879,-5.63095 4.82652,-8.84863 l 0.60332,-1.407737 c 1.40774,-3.821 3.41879,-6.636474 6.03316,-9.653054 l 0.60331,-1.206632 1.20664,-2.815474 c 0.60331,-0.603315 0.60331,-0.804421 0.80442,-1.407737 l 0.60331,-1.407737 c 0.20111,-0.603316 0.20111,-0.804421 0.80442,-1.407737 0.20111,-0.603316 0.60332,-1.005526 0.80443,-1.206631 3.41879,-4.625422 5.02763,-9.451949 8.04421,-14.278476 -0.20111,3.821 -0.60332,7.23979 -0.40221,11.060791 v 1.407737 c 0.2011,2.413263 0.2011,4.826527 0.2011,7.23979 v 43.237637 c 0.60332,2.41326 0.40221,4.82653 0.40221,7.23979 v 1.80995 c -0.2011,3.01658 -0.60331,5.63095 0,7.84311 0,0.40221 0.20111,0.80442 0.40221,1.40773 0.60332,1.20663 1.60885,2.01105 2.81548,2.21216 l 1.60884,0.40221 15.48511,-0.60332 h 1.20663 c 1.60884,-0.2011 2.81547,-0.60331 3.821,-0.80442 l 1.40774,-1.00552 c 2.21215,-1.80995 0.60331,-7.23979 0.60331,-11.2619 z m 120.26097,-28.55695 c 0,-0.80442 0,-1.40773 -0.20111,-2.01105 -0.40221,-3.016579 -1.40774,-6.234264 -3.01658,-9.250843 -0.2011,-0.603316 -0.40221,-1.206632 -1.00552,-2.011053 l -1.20664,-1.608842 c -3.21768,-5.832054 -8.84863,-10.25637 -15.08289,-12.870739 l -1.20663,-0.603316 1.40773,-0.603316 c 1.60885,-0.603316 3.01658,-1.407737 4.42432,-2.212158 l 1.60884,-1.206632 c 2.61437,-2.212158 5.02763,-4.625421 7.23979,-7.642001 0.40221,-0.201105 0.80442,-0.804421 1.40774,-1.608842 0.80442,-1.407737 1.40774,-2.212158 2.01105,-3.619895 0,-0.201106 0,-0.402211 0.20111,-0.603316 l 0.60331,-1.206632 0.80442,-2.011053 c 3.21769,-6.435369 2.41327,-13.474054 0.60332,-20.110529 -0.20111,-0.201105 -0.20111,-0.402211 -0.20111,-0.603316 l -0.40221,-1.407737 -0.40221,-2.011053 c -1.60884,-5.429843 -4.22321,-10.25637 -8.04421,-14.278475 l -1.60884,-1.407738 -1.80995,-1.407737 -2.01105,-1.005526 c -5.42984,-3.016579 -10.85969,-6.234264 -17.09395,-6.435369 -0.60332,0 -1.40774,-0.201106 -2.01105,-0.201106 -3.41879,-0.603315 -6.63648,-1.407737 -10.45748,-1.206631 -0.60332,0 -1.00552,-0.201106 -1.60884,-0.201106 -4.82653,-0.603316 -9.85416,-0.603316 -14.68069,0 h -2.01105 c -3.21769,0.201106 -6.43537,0 -9.65305,0 h -2.01106 c -5.42984,0 -10.65858,-1.005526 -16.08842,0.804422 l -1.40774,1.206631 -0.80442,1.608843 c -1.00552,2.212158 -1.40774,4.625421 -1.20663,7.23979 v 4.223211 c -0.20111,3.41879 -0.60332,6.83758 -0.40221,10.25637 v 2.011053 c 0.60332,4.625422 -0.20111,8.647527 0,13.272949 v 2.011053 c 0.2011,1.809948 0,3.821001 0.60332,5.630948 -0.20111,0.603316 -0.20111,1.206632 -0.20111,2.212158 0,0.603316 -0.20111,1.407737 -0.20111,2.011053 v 1.608843 c 0,0.603315 -0.2011,0.804421 -0.2011,1.407737 0,0.603316 0,1.005526 -0.20111,1.407737 0.60332,6.636474 0.80443,13.876265 0.60332,20.512739 0,1.005527 0,1.608843 0.20111,2.011053 v 10.457475 c 0,0.603316 -0.20111,1.206632 -0.20111,1.809948 0.20111,3.217685 0.20111,6.435368 0,9.451948 v 2.01105 c 0.20111,3.01658 0,6.03316 0,9.04974 v 1.80995 c 0.20111,5.42984 -0.20111,11.06079 -0.20111,16.49063 v 2.21216 c 0.60332,5.42984 3.01658,10.45748 9.45195,9.04974 h 10.25637 c 5.83206,0.2011 11.86521,1.00553 17.69727,0.40221 h 6.43537 c 3.01658,0 5.42984,-0.20111 8.04421,-0.40221 h 4.22321 c 7.4409,-1.40774 15.284,-2.21216 21.51827,-7.03869 l 1.60884,-1.20663 c 1.60884,-1.20663 3.21768,-2.61437 4.62542,-4.0221 l 1.40774,-1.40774 c 2.61437,-2.81547 4.62542,-5.83205 6.03316,-9.25084 l 1.00552,-1.80995 c 1.80995,-4.22321 2.81548,-8.84863 3.01658,-13.87627 v -1.80994 c 0,-1.00553 0,-1.60885 -0.2011,-2.01106 z M 359.37515,48.26527 c 0.20111,-3.217685 -0.2011,-6.234264 -0.2011,-9.451949 v -2.011053 c 0,-2.212158 -0.60332,-4.826527 0.2011,-6.435369 0.20111,-0.201105 0.60332,-0.603316 1.60885,-0.804421 h 1.40773 c 5.02764,-0.603316 9.85416,0 15.28401,0 0.80442,0 1.40773,0 1.80994,-0.201106 5.02764,0.603316 11.2619,1.608843 13.67516,6.234264 0.40221,0.402211 0.80442,1.005527 1.20664,1.809948 0.60331,1.005527 1.40773,2.413264 2.01105,3.821001 l 0.40221,1.809947 v 0.603316 c 0,0.603316 0.2011,0.804421 0.2011,1.407737 0.40221,1.407737 0.40221,2.815474 0.20111,4.424317 l -0.40221,1.608842 -0.60332,2.212158 c -0.2011,0.603316 -0.2011,1.206632 -0.80442,1.809948 -0.60331,1.809947 -2.01105,3.217684 -4.0221,4.223211 l -1.80995,0.804421 c -5.63095,1.608842 -11.66411,1.206632 -17.49616,1.005526 h -2.21216 c -2.21216,0 -4.02211,-0.201105 -6.23426,-0.201105 h -4.62543 v -3.619895 c -0.2011,-0.402211 -0.2011,-1.005527 -0.2011,-2.011053 0,-0.804421 0,-1.407737 0.2011,-1.809948 v -1.608842 h 0.20111 V 51.68406 c 0,-0.603316 0.2011,-1.005527 0.2011,-1.608843 0,-0.804421 0,-1.407737 -0.2011,-1.809947 z m 38.0089,53.89622 -0.40221,3.21768 c -0.2011,0.80442 -0.60331,1.40774 -0.80442,1.80995 l -0.80442,1.40774 c -0.60331,0.60331 -0.80442,1.00552 -1.00552,1.60884 -1.60885,2.01105 -3.82101,3.61989 -6.43537,4.62542 l -2.01106,0.60332 c -1.60884,0.60331 -3.41879,1.00552 -5.22873,1.20663 -0.40222,0.2011 -1.00553,0.2011 -1.80995,0.2011 -6.23427,-0.2011 -13.27295,1.20664 -19.10501,-1.40773 -0.40221,-0.20111 -0.60331,-0.40221 -0.60331,-1.00553 -0.60332,-1.40774 0,-3.61989 -0.20111,-5.42984 v -7.23979 c -0.2011,-0.20111 -0.2011,-0.80442 -0.2011,-1.40774 -0.60332,-4.625422 0.80442,-8.647527 0.2011,-12.870738 5.02764,0.603315 9.85416,0 14.8818,0.201105 h 8.64752 c 0.40221,0.201105 1.00553,0.201105 1.80995,0.201105 4.22321,0.603316 8.24532,1.809948 10.65858,5.027632 l 0.60332,1.407737 0.80442,1.608843 0.40221,1.809947 0.60331,4.022109 z m 79.6377,22.926 V 81.849853 c 0,-5.832053 0.80442,-11.865212 0.2011,-17.697265 0,-0.603316 0.20111,-1.206632 0.20111,-2.011053 0,-2.614369 0.20111,-5.027632 0.40221,-8.044212 V 36.400058 c 0,-1.005527 -0.2011,-7.440896 -0.2011,-14.479581 v -1.608843 c 0.2011,-1.407737 0.2011,-2.614368 0.2011,-4.022105 V 14.07737 c 0,-0.804421 0,-1.407737 -0.2011,-1.608842 0.60331,-2.413263 0.2011,-5.228738 -0.80442,-7.038685 -0.20111,-0.603316 -0.40222,-1.005527 -1.00553,-1.206632 -0.20111,-0.201105 -0.60332,-0.603316 -1.20663,-0.804421 -6.23427,-1.005527 -11.66411,-0.603316 -17.89837,-0.402211 -0.60332,0 -1.20664,0.201106 -1.80995,0.201106 -2.21216,0.603316 -4.22321,1.407737 -5.22874,4.022105 0,0.603316 -0.20111,1.206632 -0.20111,2.011053 -0.2011,1.206632 0,2.614369 0.40222,4.223211 v 37.807795 c -0.20111,0.201105 -0.20111,0.402211 -0.20111,0.804421 v 2.011053 c 0,0.603316 -0.20111,1.206632 -0.20111,1.809948 -0.2011,5.832053 -0.60331,11.664107 -0.40221,17.49616 v 9.250844 c 0,5.832053 0.20111,31.372425 0.20111,48.265265 v 1.40774 c 0,4.02211 -1.60884,9.45195 0.60332,11.2619 0.60331,0.60331 0.80442,0.40221 1.40773,1.00552 2.21216,0.80442 4.82653,1.00553 7.642,0.80442 h 2.01106 c 5.63094,-1.20663 12.66963,2.81548 15.284,-2.01105 1.60884,-3.41879 -0.20111,-8.04421 0.40221,-12.66963 v -1.80995 c 0,-1.40774 0.20111,-2.41326 0.40221,-3.821 z M 598.89156,73.001221 c 0.2011,-6.43537 0.60331,-13.071844 0,-19.708319 l -0.40221,-4.022106 v -1.407737 l -0.40222,-3.821 c -1.00552,-5.832054 -1.00552,-11.865212 -4.22321,-17.295055 -0.60331,-1.407737 -1.40773,-2.815474 -2.01105,-3.821001 -1.00553,-2.413263 -2.61437,-4.826527 -4.62542,-7.23979 l -1.40774,-1.407737 c -2.21216,-2.212159 -4.62542,-4.223211 -7.03868,-5.832054 L 577.17219,7.23979 C 571.54124,3.821001 565.10587,2.815474 558.8716,1.407737 h -3.01658 c -9.04973,0.603316 -18.30058,-0.603316 -26.94811,2.614369 l -2.61436,1.005526 c -4.62543,2.212158 -8.84864,4.223211 -12.06632,8.044212 l -1.60884,1.809948 c -1.40774,1.809947 -2.81548,3.619895 -3.821,5.832053 -1.40774,2.614369 -2.81548,5.630948 -3.821,9.049738 -1.80995,5.027632 -2.61437,10.457475 -3.21769,15.887318 l -0.40221,3.821001 c 0,0.603315 -0.2011,1.206631 -0.2011,1.809947 l -0.40222,5.429843 c 0,0.603316 -0.2011,1.206632 -0.2011,1.809948 -0.60332,5.027632 -0.60332,9.854159 -0.40221,14.881791 v 1.809948 c 0.60331,5.429843 0.40221,10.457475 0.60331,15.887318 v 1.809947 c 0.20111,3.217685 0.40222,6.43537 1.00553,9.653056 0.60332,5.42984 1.40774,10.85968 3.21769,15.88732 1.00552,3.41879 2.41326,6.43537 3.821,9.04973 1.00552,2.21216 2.41326,4.02211 3.821,5.83206 l 1.60884,1.80995 c 3.21768,3.821 7.44089,5.83205 12.06632,8.04421 l 2.61436,1.00552 c 8.64753,3.21769 17.89838,2.01106 26.94811,2.61437 h 3.01658 c 6.23427,-1.40774 12.66964,-2.41326 18.30059,-5.83205 l 1.60884,-1.20663 c 2.41326,-1.60885 4.82652,-3.6199 7.03868,-5.83206 l 1.40774,-1.40773 c 4.0221,-5.02764 6.63647,-10.85969 9.25084,-16.69174 0,-0.60332 0.20111,-1.20663 0.20111,-1.80995 0,-0.60332 0.2011,-1.40774 0.2011,-2.01105 l 1.00553,-6.23427 c 0,-0.80442 0,-1.80994 0.2011,-2.61437 0.60332,-3.01658 0.60332,-5.630944 0.80443,-8.245313 0.60331,-6.636474 0.2011,-13.272949 0,-19.708318 z m -28.95917,13.876265 v 4.223211 c 0,1.206632 0,2.011053 0.20111,2.614369 l -0.40221,2.212158 c 0,1.608842 -0.20111,4.022106 -1.00553,5.630946 -0.60331,4.02211 -1.20663,7.84311 -3.821,11.06079 -0.60331,1.00553 -1.20663,1.60885 -1.80994,2.41327 l -1.20664,1.00552 -1.20663,0.80442 c -5.42984,2.61437 -11.86521,3.01658 -17.69726,2.41327 l -2.01106,-0.60332 c -2.21216,-0.60331 -4.0221,-1.80995 -5.63095,-3.61989 l -1.40773,-1.40774 c -0.60332,-0.80442 -0.80442,-1.40774 -1.00553,-1.80995 -0.60332,-1.00552 -1.20663,-1.80995 -1.60884,-2.81547 -0.60332,-2.01105 -1.20663,-4.22321 -1.40774,-6.63648 0,-0.60331 -0.2011,-1.20663 -0.2011,-1.80995 -0.40221,-2.212153 -0.60332,-4.223206 -0.60332,-6.435364 -0.20111,-3.016579 -0.40221,-5.429843 -0.40221,-8.044211 0,-0.804422 -0.2011,-1.407738 -0.2011,-2.011053 0,-0.804422 -0.20111,-1.407737 -0.20111,-2.212159 0,-5.832053 0.80442,-11.865212 0.20111,-17.697265 0,-0.603316 0.2011,-1.206632 0.2011,-2.011053 0,-2.614369 0.2011,-5.027632 0.40221,-8.044212 0,-2.011053 0.20111,-4.223211 0.60332,-6.435369 0,-0.603316 0.2011,-1.206632 0.2011,-1.809948 0.20111,-2.413263 0.80442,-4.625421 1.40774,-6.636474 0.40221,-1.005527 1.00552,-1.809948 1.60884,-2.815474 0.20111,-0.402211 0.40221,-1.005527 1.00553,-1.809948 l 1.40773,-1.407737 c 1.60885,-1.809948 3.41879,-3.016579 5.63095,-3.619895 l 2.01106,-0.603316 c 5.83205,-0.603316 12.26742,-0.201105 17.69726,2.413263 l 1.20663,0.804422 1.20664,1.005526 c 0.60331,0.804421 1.20663,1.407737 1.80994,2.413263 2.61437,3.217685 3.21769,7.038686 3.821,11.060791 0.80442,1.608843 1.00553,4.022106 1.00553,5.630949 l 0.40221,2.212158 c -0.20111,1.608842 -0.20111,3.41879 -0.20111,5.228737 v 8.044212 c 0.20111,1.809948 0.40221,3.41879 0.40221,5.630948 v 1.809948 c 0,3.41879 -0.80442,6.83758 -0.60331,10.25637 0,0.603316 0.2011,0.804421 0.2011,1.407737 z m 82.05096,-50.477428 c 0.20111,-0.402211 0.40221,-1.005527 1.00553,-1.809948 l 1.40774,-1.407737 c 1.60884,-1.809948 3.41879,-3.016579 5.63094,-3.619895 l 2.01106,-0.603316 c 5.83205,-0.603316 12.26742,-0.201105 17.69726,2.413263 l 1.20663,0.804422 1.20664,1.005526 c 0.60331,0.804421 1.20663,1.407737 1.80994,2.413263 1.40774,1.809948 2.21216,3.41879 2.81548,5.228738 l 0.40221,1.809948 c 0.2011,1.407737 0.40221,2.815474 1.00553,4.223211 0.40221,1.407737 1.00552,2.413263 2.01105,3.41879 5.42984,1.809947 11.6641,0.603316 17.29505,1.206631 0.80443,0 1.40774,0 1.80995,0.201106 4.02211,0 7.642,-2.614369 7.84311,-6.83758 0,-1.005527 0,-1.608842 -0.20111,-2.011053 l -0.80442,-6.234264 -0.40221,-1.608842 c -0.60332,-3.01658 -1.20663,-5.630949 -2.81547,-8.245317 -0.60332,-1.407737 -1.40774,-2.815474 -2.01106,-3.821001 -1.00552,-2.413263 -2.61436,-4.826527 -4.62542,-7.23979 l -1.40773,-1.407737 c -2.21216,-2.212159 -4.62543,-4.223211 -7.03869,-5.832054 L 696.22652,7.23979 C 690.59557,3.821001 684.1602,2.815474 677.92594,1.407737 h -3.01658 c -9.04974,0.603316 -18.30058,-0.603316 -26.94811,2.614369 l -2.61437,1.005526 c -4.62542,2.212158 -8.84863,4.223211 -12.06632,8.044212 l -1.60884,1.809948 c -1.40774,1.809947 -2.81548,3.619895 -3.821,5.832053 -1.20663,2.011053 -2.21216,4.022106 -2.81548,5.832053 l -1.00552,3.217685 c -1.40774,3.217685 -2.21216,6.234264 -2.41327,10.055265 0,0.603315 -0.2011,1.206631 -0.2011,2.011053 0.60331,6.234264 0,12.669633 3.01658,18.501686 0.2011,0.402211 0.40221,1.005527 1.00552,1.809948 0.80443,1.407737 1.60885,2.413263 2.61437,3.41879 l 1.40774,1.407737 c 3.01658,3.41879 6.43537,6.435369 10.65858,9.049738 l 1.20663,0.603316 1.40774,0.603316 c 5.83205,3.821 12.46853,5.630948 18.70279,8.245317 l 2.01105,0.603316 c 6.23427,1.608842 12.06632,4.223211 17.49616,7.440895 0.60332,0.201106 1.00553,0.402211 1.60885,1.005527 1.00552,0.603316 1.80994,1.608842 2.61437,2.614369 0.2011,0.603315 0.60331,1.005526 0.80442,1.206631 l 0.60331,1.809943 0.40221,1.60885 v 2.01105 c -0.2011,4.82653 -1.80994,9.25084 -5.63094,12.46853 l -1.40774,1.00553 c -1.00553,0.60331 -2.01105,1.20663 -3.01658,1.40773 l -2.01105,0.60332 c -5.83206,0.60331 -12.26743,0.2011 -17.69727,-2.41327 l -1.20663,-0.80442 -1.20663,-1.00552 c -0.60332,-0.80442 -1.20663,-1.40774 -1.80995,-2.41327 -1.80995,-2.21215 -2.61437,-4.62542 -3.21768,-7.03868 l -0.40222,-2.01105 c 0,-0.60332 -0.2011,-0.80443 -0.2011,-1.40774 0,-1.40774 -0.20111,-2.815476 -0.80442,-3.821003 l -0.80442,-1.407737 -1.20664,-1.206632 c -0.60331,-0.201105 -1.20663,-0.603315 -2.01105,-0.804421 -2.21216,-0.603316 -4.62542,-0.804421 -7.23979,-0.804421 -0.80442,0 -1.40773,0 -1.80995,-0.201105 -3.21768,0.603316 -7.03868,0 -10.45747,0.603316 -0.60332,0 -1.20663,0.201105 -2.01105,0.603316 -4.02211,1.407737 -3.6199,6.033157 -2.81548,9.451947 v 1.40774 c 0,0.40221 0,0.60331 0.20111,0.80442 0.80442,5.02763 1.40773,9.85416 3.821,14.47958 l 0.60331,1.60884 0.80442,1.60885 c 0.60332,0.60331 0.40221,1.00552 1.00553,1.60884 1.40774,2.41326 2.81548,4.62542 4.22321,6.43537 l 1.40774,1.40773 c 2.21216,2.21216 4.62542,4.22321 7.03868,5.83206 l 1.60885,1.20663 c 5.63094,3.41879 12.06631,4.42431 18.30058,5.83205 h 3.01658 c 9.04974,-0.60331 18.30058,0.60332 26.94811,-2.61437 l 2.61437,-1.00552 c 4.62542,-2.21216 8.84863,-4.22321 12.06631,-8.04421 l 1.60884,-1.80995 c 1.40774,-1.80995 2.81548,-3.6199 3.82101,-5.83206 l 0.80442,-1.40773 0.60331,-1.40774 c 2.61437,-5.42984 4.22321,-11.2619 5.22874,-17.09395 0,-0.80442 0.20111,-1.40774 0.20111,-2.21216 0,-2.21216 -0.20111,-4.42431 -0.80443,-6.435367 0,-0.804421 0,-1.407737 -0.2011,-2.011053 -0.40221,-6.636474 -2.81547,-12.267423 -7.03869,-17.09395 l -1.00552,-1.206631 -3.21769,-3.619895 -1.80995,-1.608843 c -3.821,-3.016579 -8.04421,-4.424316 -12.26742,-6.033159 -0.40221,-0.201105 -1.00552,-0.603315 -1.80994,-0.804421 -6.43537,-2.614368 -13.27295,-4.223211 -19.50722,-7.23979 -0.80442,-0.201105 -1.40774,-0.402211 -1.60884,-0.402211 -4.82653,-1.608842 -9.45195,-3.619895 -13.27295,-7.038685 l -1.40774,-1.608842 c -3.01658,-3.217685 -3.01658,-8.647528 -0.80442,-12.468528 0.20111,-0.603316 0.40221,-1.005527 0.80442,-1.407737 z m 184.61466,-9.451949 c 0,-3.41879 -0.20111,-6.636475 -0.40221,-10.055265 v -5.027632 c 0.60332,-2.413263 1.20663,-5.429843 -1.00553,-7.038685 l -1.80994,-1.206632 -1.80995,-0.603316 c -4.62542,0 -9.45195,0.402211 -14.07737,-0.201105 h -2.01106 c -0.80442,0 -1.40773,0 -1.80994,0.201105 -0.60332,0 -1.20664,0.201106 -1.80995,0.201106 -5.22874,3.217684 -3.21768,10.65858 -3.21768,15.485107 v 1.809948 c 0,1.407737 0,2.413263 -0.20111,3.821 0,0.804421 0,1.407737 -0.20111,1.809948 -0.2011,4.223211 -0.60331,8.245317 -0.40221,12.468528 v 1.608842 c 0,1.809948 -0.2011,3.619895 0,5.228738 l -0.40221,2.212158 c -0.2011,5.630948 -1.40773,12.669633 -4.82652,16.691739 -0.60332,1.005527 -1.20664,1.608842 -1.80995,2.413264 l -1.20663,1.005526 -1.20663,0.804421 c -5.42985,2.614369 -11.86522,3.01658 -17.69727,2.413264 l -2.01105,-0.603316 c -2.21216,-0.603316 -4.02211,-1.809948 -5.63095,-3.619895 L 771.641,65.35922 c -0.60332,-0.804422 -0.80442,-1.407737 -1.00552,-1.809948 -0.60332,-1.005527 -1.20664,-1.809948 -1.60885,-2.815474 -1.00552,-2.413264 -1.40773,-4.625422 -1.60884,-6.636475 v -1.809947 c -0.60332,-2.212159 -0.80442,-4.223211 -0.80442,-6.43537 -0.20111,-3.016579 -0.40221,-5.429843 -0.40221,-8.044211 v -2.011053 c 0,-0.804421 -0.20111,-1.407737 -0.20111,-2.212158 -0.2011,-0.402211 -0.2011,-1.005527 -0.2011,-2.011053 -0.60332,-3.217685 -0.40221,-6.43537 -0.20111,-9.653054 0,-0.804421 0.20111,-1.407737 0.20111,-2.011053 -0.20111,-3.217685 0.60331,-6.636475 0,-9.854159 0,-0.804422 -0.20111,-1.407737 -0.20111,-2.011053 l -0.60331,-1.608843 c -0.20111,-0.603316 -0.60332,-0.804421 -0.80442,-1.005526 -4.62543,-3.41879 -10.85969,-2.614369 -16.28953,-2.011053 -0.60332,0 -1.20663,0.201105 -1.80995,0.201105 -0.60332,0 -1.40774,0.201106 -2.01105,0.201106 -0.80442,0 -1.40774,0.201105 -2.21216,0.40221 -0.60332,0 -1.20663,0 -1.40774,0.201105 -3.21768,1.407737 -3.01658,5.027633 -3.01658,8.044212 0,0.603316 0.20111,0.804421 0.20111,1.407737 0.2011,2.614369 0,5.027632 0,7.440896 v 1.809947 l 0.60331,16.289529 c 0.20111,4.826527 0.60332,9.854159 1.20663,14.881792 0.60332,5.429842 1.40774,10.859685 3.21769,15.887318 1.00553,3.418789 2.41326,6.435369 3.821,9.049738 1.00553,2.212158 2.41326,4.022105 3.821,5.832053 l 1.60884,1.809948 c 3.21769,3.821 7.4409,5.832053 12.06632,8.044211 l 2.61437,1.005527 c 1.60884,0.603316 3.41879,1.005526 5.22874,1.608842 v 15.082894 c 0,1.00553 0.2011,6.63648 0.2011,13.67516 v 1.60885 c -0.2011,1.40773 -0.2011,2.61436 -0.2011,4.0221 v 2.21216 c 0,0.80442 0,1.40774 0.2011,1.60884 -0.60331,2.41326 -0.2011,5.22874 0.80442,7.03869 0.20111,0.60331 0.40221,1.00552 1.00553,1.20663 0.2011,0.2011 0.60331,0.60331 1.20663,0.80442 6.23427,1.00553 11.66411,0.60331 17.89837,0.40221 0.60332,0 1.20663,-0.20111 1.80995,-0.20111 8.04421,-1.00552 3.821,-10.65858 5.02763,-16.28952 V 97.938277 c 3.01658,-0.402211 5.63095,-1.005527 7.84311,-2.011053 l 1.80995,-0.603316 c 6.23426,-2.212158 11.26189,-6.033159 15.284,-11.261896 l 1.20663,-1.608843 c 2.21216,-3.016579 3.61989,-5.832053 5.02763,-8.848633 l 0.80442,-1.809947 c 1.00553,-2.212158 2.01106,-4.625422 2.61437,-7.239791 0.20111,-0.804421 0.40221,-1.407737 0.40221,-2.011053 0.20111,-0.40221 0.20111,-1.005526 0.20111,-1.809947 0.2011,-1.005527 0.40221,-1.809948 0.40221,-2.212158 0,-0.201106 0.2011,-0.603316 0.2011,-0.804422 v -0.201105 c 0,-0.804421 0,-1.809947 0.20111,-2.614369 0.60331,-3.016579 0.60331,-5.630948 0.80442,-8.245317 0.60332,-6.636474 0.20111,-13.272949 0,-19.708318 z m 51.08074,9.451949 c 0.20111,-0.402211 0.40221,-1.005527 1.00553,-1.809948 l 1.40774,-1.407737 c 1.60884,-1.809948 3.41879,-3.016579 5.63095,-3.619895 l 2.01105,-0.603316 c 5.83205,-0.603316 12.26742,-0.201105 17.69726,2.413263 l 1.20664,0.804422 1.20663,1.005526 c 0.60331,0.804421 1.20663,1.407737 1.80994,2.413263 1.40774,1.809948 2.21216,3.41879 2.81548,5.228738 l 0.40221,1.809948 c 0.20111,1.407737 0.40221,2.815474 1.00553,4.223211 0.40221,1.407737 1.00552,2.413263 2.01105,3.41879 5.42984,1.809947 11.66411,0.603316 17.29505,1.206631 0.80443,0 1.40774,0 1.80995,0.201106 4.02211,0 7.642,-2.614369 7.84311,-6.83758 0,-1.005527 0,-1.608842 -0.20111,-2.011053 l -0.80442,-6.234264 -0.40221,-1.608842 c -0.60331,-3.01658 -1.20663,-5.630949 -2.81547,-8.245317 -0.60332,-1.407737 -1.40774,-2.815474 -2.01106,-3.821001 -1.00552,-2.413263 -2.61436,-4.826527 -4.62542,-7.23979 l -1.40773,-1.407737 c -2.21216,-2.212159 -4.62543,-4.223211 -7.03869,-5.832054 L 931.92192,7.23979 C 926.29097,3.821001 919.8556,2.815474 913.62134,1.407737 h -3.01658 c -9.04974,0.603316 -18.30058,-0.603316 -26.94811,2.614369 l -2.61437,1.005526 c -4.62542,2.212158 -8.84863,4.223211 -12.06632,8.044212 l -1.60884,1.809948 c -1.40774,1.809947 -2.81547,3.619895 -3.821,5.832053 -1.20663,2.011053 -2.21216,4.022106 -2.81548,5.832053 l -1.00552,3.217685 c -1.40774,3.217685 -2.21216,6.234264 -2.41327,10.055265 0,0.603315 -0.2011,1.206631 -0.2011,2.011053 0.60332,6.234264 0,12.669633 3.01658,18.501686 0.20111,0.402211 0.40221,1.005527 1.00553,1.809948 0.80442,1.407737 1.60884,2.413263 2.61436,3.41879 l 1.40774,1.407737 c 3.01658,3.41879 6.43537,6.435369 10.65858,9.049738 l 1.20663,0.603316 1.40774,0.603316 c 5.83205,3.821 12.46853,5.630948 18.70279,8.245317 l 2.01106,0.603316 c 6.23426,1.608842 12.06631,4.223211 17.49616,7.440895 0.60331,0.201106 1.00552,0.402211 1.60884,1.005527 1.00552,0.603316 1.80995,1.608842 2.61437,2.614369 0.2011,0.603315 0.60331,1.005526 0.80442,1.206631 l 0.60331,1.809943 0.40222,1.60885 v 2.01105 c -0.20111,4.82653 -1.80995,9.25084 -5.63095,12.46853 l -1.40774,1.00553 c -1.00553,0.60331 -2.01105,1.20663 -3.01658,1.40773 l -2.01105,0.60332 c -5.83206,0.60331 -12.26743,0.2011 -17.69727,-2.41327 l -1.20663,-0.80442 -1.20663,-1.00552 c -0.60332,-0.80442 -1.20663,-1.40774 -1.80995,-2.41327 -1.80995,-2.21215 -2.61437,-4.62542 -3.21768,-7.03868 l -0.40221,-2.01105 c 0,-0.60332 -0.20111,-0.80443 -0.20111,-1.40774 0,-1.40774 -0.20111,-2.815476 -0.80442,-3.821003 l -0.80442,-1.407737 -1.20663,-1.206632 c -0.60332,-0.201105 -1.20664,-0.603315 -2.01106,-0.804421 -2.21216,-0.603316 -4.62542,-0.804421 -7.23979,-0.804421 -0.80442,0 -1.40773,0 -1.80995,-0.201105 -3.21768,0.603316 -7.03868,0 -10.45747,0.603316 -0.60332,0 -1.20663,0.201105 -2.01105,0.603316 -4.02211,1.407737 -3.6199,6.033157 -2.81548,9.451947 v 1.40774 c 0,0.40221 0,0.60331 0.20111,0.80442 0.80442,5.02763 1.40773,9.85416 3.821,14.47958 l 0.60332,1.60884 0.80442,1.60885 c 0.60331,0.60331 0.40221,1.00552 1.00552,1.60884 1.40774,2.41326 2.81548,4.62542 4.22321,6.43537 l 1.40774,1.40773 c 2.21216,2.21216 4.62542,4.22321 7.03869,5.83206 l 1.60884,1.20663 c 5.63095,3.41879 12.06632,4.42431 18.30058,5.83205 h 3.01658 c 9.04974,-0.60331 18.30058,0.60332 26.94811,-2.61437 l 2.61437,-1.00552 c 4.62542,-2.21216 8.84863,-4.22321 12.06631,-8.04421 l 1.60885,-1.80995 c 1.40773,-1.80995 2.81547,-3.6199 3.821,-5.83206 l 0.80442,-1.40773 0.60331,-1.40774 c 2.61437,-5.42984 4.22321,-11.2619 5.22874,-17.09395 0,-0.80442 0.20111,-1.40774 0.20111,-2.21216 0,-2.21216 -0.20111,-4.42431 -0.80442,-6.435367 0,-0.804421 0,-1.407737 -0.20111,-2.011053 -0.40221,-6.636474 -2.81547,-12.267423 -7.03869,-17.09395 l -1.00552,-1.206631 -3.21769,-3.619895 -1.80994,-1.608843 c -3.821,-3.016579 -8.04422,-4.424316 -12.26743,-6.033159 -0.40221,-0.201105 -1.00552,-0.603315 -1.80994,-0.804421 -6.43537,-2.614368 -13.27295,-4.223211 -19.50722,-7.23979 -0.80442,-0.201105 -1.40773,-0.402211 -1.60884,-0.402211 -4.82653,-1.608842 -9.45195,-3.619895 -13.27295,-7.038685 l -1.40774,-1.608842 c -3.01658,-3.217685 -3.01658,-8.647528 -0.80442,-12.468528 0.20111,-0.603316 0.40221,-1.005527 0.80442,-1.407737 z"
             style="fill:#00f704;fill-opacity:1;fill-rule:nonzero;stroke:none"
             id="path96"
             inkscape:connector-curvature="0" /></g></g></g></g></svg>